<?xml version="1.0" ?><svg id="Layer_1" style="enable-background:new 0 0 512 512;" version="1.1" viewBox="0 0 512 512" xml:space="preserve" xmlns="http://www.w3.org/2000/svg" xmlns:xlink="http://www.w3.org/1999/xlink"><style type="text/css">
	.st0{opacity:0.5;fill:#3D3D3C;}
	.st1{fill:#20201E;}
</style><path class="st0" d="M445.1,212.2H337.4c0,0-0.1,0-0.1-0.1c0-13.7-4.4-26.4-11.9-36.7l0,0v-33.6c0,0,0-0.1-0.1,0l-22.3,14.5l0.1,0.1  c-8.6-4.4-18.3-6.9-28.5-6.9s-20,2.5-28.5,6.9l0.1-0.1l-22.3-14.5c0,0-0.1,0-0.1,0v33.6l0,0c-7.5,10.3-11.9,23-11.9,36.7  c0,0,0,0.1-0.1,0.1H104.1c-12,0-22.3,9.4-22.7,21.4c-0.4,12.6,9.7,22.9,22.1,22.9c35.7,0,64.6,28.9,64.6,64.6c0,0,0,0,0,0h0  c35.7,0,64.6,28.9,64.6,64.6c0,0,0,0.1,0.1,0.1c16.8,0,31.5,8.6,40.1,21.7c0,0,0.1,0,0.1,0c8.6-13.1,23.4-21.7,40.2-21.7  c1.1,0,2.1,0,3.2,0.1c0,0,0-0.1,0-0.1c0-35.7,28.9-64.6,64.6-64.6h0c0,0,0,0,0,0c0-35.7,28.9-64.6,64.6-64.6  c12.5,0,22.6-10.3,22.1-22.9C467.4,221.6,457.1,212.2,445.1,212.2z"/><g><path class="st1" d="M234.5,174.3c-9.4,0-17,7.6-17,17c0,9.4,7.6,17,17,17c9.4,0,17-7.6,17-17C251.5,181.9,243.9,174.3,234.5,174.3   z M234.5,198.2c-3.8,0-7-3.1-7-7c0-3.8,3.1-7,7-7c3.8,0,7,3.1,7,7C241.5,195.1,238.4,198.2,234.5,198.2z"/><path class="st1" d="M283.4,179.7c-6.4,0-11.6,5.2-11.6,11.6c0,6.4,5.2,11.6,11.6,11.6s11.6-5.2,11.6-11.6   C295,184.9,289.8,179.7,283.4,179.7z M283.4,192.9c-0.9,0-1.6-0.7-1.6-1.6s0.7-1.6,1.6-1.6c0.9,0,1.6,0.7,1.6,1.6   S284.3,192.9,283.4,192.9z"/><path class="st1" d="M263.6,211.8c-2,2-5.1,2-7.1,0c-2-2-5.1-2-7.1,0c-2,2-2,5.1,0,7.1c2.9,2.9,6.8,4.4,10.6,4.4s7.7-1.5,10.6-4.4   c2-2,2-5.1,0-7.1C268.7,209.8,265.6,209.8,263.6,211.8z"/><path class="st1" d="M428.5,198.6H324.9c-0.9-12-4.9-23.4-11.7-33.3v-32.2c0-1.8-1-3.5-2.6-4.4c-1.6-0.9-3.6-0.8-5.1,0.2l-20,13.1   c-8.8-4.1-18.3-6.1-28.1-6.1c-9.8,0-19.2,2.1-28.1,6.1l-20-13.1c-1.5-1-3.5-1.1-5.1-0.2c-1.6,0.9-2.6,2.6-2.6,4.4v32.2   c-6.8,9.9-10.8,21.3-11.7,33.3H86.3c-15,0-27.1,12.2-27.1,27.1c0,15,12.2,27.1,27.1,27.1c32.9,0,59.6,26.7,59.6,59.6   c0,0.2,0,0.5,0,0.7c0.3,2.5,2.4,4.4,5,4.4c32.9,0,59.6,26.7,59.6,59.6c0,2.8,2.2,5,5,5c14.6,0,28,7.3,36,19.5   c0.9,1.4,2.5,2.3,4.2,2.3s3.3-0.8,4.2-2.3c8-12.2,21.5-19.5,36-19.5c0.8,0,1.8,0,2.9,0.1c1.4,0.1,2.7-0.4,3.7-1.3   c1-0.9,1.6-2.3,1.6-3.6l0-0.1c0-32.9,26.8-59.6,59.6-59.6c2.8,0,5-2.2,5-5c0,0,0-0.1,0-0.1c0-32.9,26.8-59.6,59.6-59.6   c15,0,27.1-12.2,27.1-27.1C455.6,210.8,443.4,198.6,428.5,198.6z M428.5,242.9c-36.8,0-67,28.7-69.5,64.8   c-34.5,2.4-62.2,30-64.6,64.5c-15,0.5-28.9,7.2-38.6,18.4c-9-10.4-21.6-17-35.4-18.2c-2.4-34.6-30.1-62.3-64.6-64.7   c-2.5-36.2-32.7-64.8-69.5-64.8c-9.5,0-17.1-7.7-17.1-17.1c0-9.5,7.7-17.1,17.1-17.1h108.4c2.8,0,5-2.2,5-5c0-12.2,3.8-24,11-33.9   c0.8-1,1-2.3,0.9-3.5v-23.9l13.9,9.1c1.5,1.4,3.8,1.8,5.7,0.8c8.2-4.2,17-6.3,26.3-6.3c9.2,0,18.1,2.1,26.3,6.3   c1.8,0.9,4,0.6,5.5-0.7l14.1-9.2v23.8c-0.2,1.2,0.1,2.5,0.9,3.6c7.2,9.9,11,21.6,11,33.9c0,2.8,2.2,5,5,5h108.4   c9.5,0,17.1,7.7,17.1,17.1C445.6,235.2,437.9,242.9,428.5,242.9z"/></g></svg>